<?xml version="1.0" encoding="UTF-8" standalone="no"?>
<!-- Created with Inkscape (http://www.inkscape.org/) -->

<svg
   width="386.35797"
   height="226.09975"
   viewBox="0 0 102.22388 59.822224"
   version="1.1"
   id="svg1"
   xml:space="preserve"
   xmlns="http://www.w3.org/2000/svg"
   xmlns:svg="http://www.w3.org/2000/svg"><defs
     id="defs1" /><path
     style="-inkscape-font-specification:'Test National 2 Bold';fill:#ffffff;stroke-width:0.615531"
     d="m 62.266801,22.987031 c 0,-6.322735 -3.840913,-10.045466 -12.350013,-10.045466 -7.563644,0 -12.350013,3.722731 -12.881832,9.69092 l 8.922737,1.24091 c 0,-2.540911 1.240911,-4.018186 3.545458,-4.018186 2.245457,0 3.368186,1.300002 3.368186,3.486368 v 3.013639 c -1.004547,-0.05909 -2.540912,-0.177273 -3.722731,-0.177273 -8.450009,0 -13.590924,3.309095 -13.590924,9.277283 0,5.49546 3.840913,8.686372 9.454556,8.686372 3.959095,0 7.386371,-1.772729 8.627281,-4.668186 0.236364,0.768182 0.531819,1.418183 1.004547,1.950002 1.300001,1.713638 3.427276,2.718184 6.145461,2.718184 2.009093,0 4.018186,-0.531818 5.377279,-1.477274 L 65.81226,36.34159 c -0.472728,0.413637 -1.004547,0.650001 -1.654548,0.650001 -1.063637,0 -1.890911,-0.59091 -1.890911,-2.127275 z m -9.395464,9.927283 c 0,3.604549 -2.245457,4.904551 -4.431823,4.904551 -2.245457,0 -3.545458,-1.240911 -3.545458,-3.131822 0,-2.42273 2.009093,-3.66364 5.909097,-3.66364 0.768182,0 1.536365,0.05909 2.068184,0.118182 z M 78.433975,5.2597388 c 0,-3.3681854 -2.718185,-5.25909644764 -5.672734,-5.25909644764 -2.954548,0 -5.672733,1.89091104764 -5.672733,5.25909644764 0,3.3090944 2.718185,5.2000052 5.672733,5.2000052 2.954549,0 5.672734,-1.8909108 5.672734,-5.2000052 z M 67.856691,13.650657 v 29.900032 h 9.75001 V 13.650657 Z m 33.126279,21.27275 c -1.536369,1.063637 -2.895462,1.536365 -4.490918,1.536365 -2.127275,0 -3.368185,-1.122728 -3.368185,-3.604549 V 20.800665 h 7.800013 V 13.650657 H 93.182958 V 6.1461034 l -9.75001,1.1818194 v 6.3227342 h -3.900004 v 7.150008 h 3.840913 v 13.354559 c 0,7.031826 4.372731,10.104556 10.695465,10.104556 3.131822,0 6.027278,-0.886364 8.154558,-2.48182 z"
     id="text1"
     aria-label="ait" /><path
     d="m 72.769355,0 c -2.954548,0 -5.672522,1.890925 -5.672522,5.25911 0,3.3090954 2.717974,5.200199 5.672522,5.200199 2.954549,0 5.673038,-1.8911036 5.673038,-5.200199 C 78.442393,1.890925 75.723904,0 72.769355,0 Z"
     style="-inkscape-font-specification:'Test National 2 Bold';fill:#f2e200;fill-opacity:0.95;stroke-width:0.615531"
     id="path6" /><path
     id="path3"
     style="fill:#ffffff;stroke-width:2.42052"
     d="m 16.840021,12.939057 c -8.7144637,0 -15.766807,7.290502 -15.7668045,16.045737 0,8.755235 7.0523428,16.05074 15.7668045,16.050743 2.990994,0 6.983447,-2.360068 9.400039,-4.964574 -0.0466,2.46051 -0.121341,4.523788 -0.242662,5.597498 -0.109093,0.965097 -1.029543,2.843772 -2.6155,4.226577 -1.58596,1.382806 -3.650213,2.287905 -5.828902,2.236498 -2.459025,-0.05802 -5.170109,-1.050986 -7.072232,-2.444137 -1.902125,-1.393148 -2.7640997,-3.0283 -2.7981227,-3.938884 L 3.7896955e-8,46.032454 C 0.15663174,50.224706 2.7568103,53.551876 5.9427273,55.885299 c 3.1859137,2.333423 7.1906067,3.83257 11.4313997,3.932632 4.376858,0.103283 8.234163,-1.669918 11.057401,-4.131516 2.823241,-2.461597 4.797655,-5.595613 5.19973,-9.152374 0.411531,-3.640444 0.386491,-10.215788 0.326467,-16.967606 -0.06003,-6.751816 -0.196909,-13.513873 -0.175124,-16.205847 l -7.686385,-0.06129 c -0.0082,1.017818 0.0048,2.5326 0.025,4.220325 -3.934035,-3.980522 -6.222117,-4.580566 -9.281211,-4.580566 z m 0,8.684561 c 3.905662,0 7.080987,3.188477 7.080987,7.361176 0,4.172699 -3.175325,7.361177 -7.080987,7.361177 -3.905663,0 -7.082241,-3.188478 -7.082241,-7.361177 -3e-6,-4.172699 3.176578,-7.361176 7.082241,-7.361176 z" /></svg>
